PathFileType	4	(X/Y/Z)	C:/Users/opensim2020/Desktop/walking_exp_matlab/subject02_walking09_straight_04.trc	
DataRate	CameraRate	NumFrames	NumMarkers	Units	OrigDataRate	OrigDataStartFrame	OrigNumFrames	
100.00	100.00	6	42	mm	100.00	3078	285	
Frame#	Time	LFHD			RFHD			LBHD			RBHD			C7			T10			CLAV			STRN			RBAK			LSHO			LUPA			LELB			LFRM			LWRA			LWRB			LFIN			RSHO			RUPA			RELB			RFRM			RWRA			RWRB			RFIN			LASI			RASI			LPSI			RPSI			LTHI			LKNE			LTIB			LANK			LHEE			LTOE			RTHI			RKNE			RTIB			RANK			RHEE			RTOE			*39			*40			*41			
		X1	Y1	Z1	X2	Y2	Z2	X3	Y3	Z3	X4	Y4	Z4	X5	Y5	Z5	X6	Y6	Z6	X7	Y7	Z7	X8	Y8	Z8	X9	Y9	Z9	X10	Y10	Z10	X11	Y11	Z11	X12	Y12	Z12	X13	Y13	Z13	X14	Y14	Z14	X15	Y15	Z15	X16	Y16	Z16	X17	Y17	Z17	X18	Y18	Z18	X19	Y19	Z19	X20	Y20	Z20	X21	Y21	Z21	X22	Y22	Z22	X23	Y23	Z23	X24	Y24	Z24	X25	Y25	Z25	X26	Y26	Z26	X27	Y27	Z27	X28	Y28	Z28	X29	Y29	Z29	X30	Y30	Z30	X31	Y31	Z31	X32	Y32	Z32	X33	Y33	Z33	X34	Y34	Z34	X35	Y35	Z35	X36	Y36	Z36	X37	Y37	Z37	X38	Y38	Z38	X39	Y39	Z39	X40	Y40	Z40	X41	Y41	Z41	X42	Y42	Z42	

72	0.710	1472.24719	444.16843	1737.31812	1330.30786	454.15390	1717.56555	1490.60107	567.59436	1652.71338	1350.59753	589.32922	1631.46252	1407.49976	618.49872	1511.60840	1395.06787	672.03265	1239.58081	1427.28894	477.90869	1446.14197	1411.22083	424.89154	1274.15564	1331.24731	668.84149	1342.99500	1592.69678	560.96484	1478.42749	1666.55188	597.67432	1277.42346	1672.89075	616.28723	1137.64087	1679.61938	617.08649	1004.67914	1640.50867	570.55853	876.54602	1675.74670	615.40747	881.19739	1674.19336	601.77100	815.35461	1228.17493	522.07220	1488.96692	1138.11438	504.01434	1297.84070	1123.62207	449.81534	1159.14001	1117.55774	379.30292	1059.56055	1151.28967	292.53540	961.63336	1114.97546	329.96674	938.95532	1118.49146	270.32950	898.65710	1532.41711	436.58047	979.62463	1273.97791	449.63861	956.56934	1456.22375	651.12134	1021.85156	1342.69739	659.02478	1021.27692	1612.20032	443.76288	680.52155	1584.90491	420.60178	479.91095	1590.37415	423.85837	285.43665	1576.81763	351.20422	70.76796	1522.18042	371.23822	36.62751	1596.98767	194.18149	62.81650	1221.39282	585.23999	661.44135	1258.58191	634.75507	456.37906	1252.35681	734.70087	294.56650	1289.44324	812.64081	116.05254	1344.90894	859.95337	68.91349	1275.73376	673.64191	38.84221	1389.80542	557.31177	1794.16821	-3356.78418	2845.81714	1034.06750			 
73	0.720	1475.10254	436.12070	1736.17847	1333.20349	445.95975	1716.74060	1493.29602	559.46741	1651.51160	1353.24268	581.11694	1630.41687	1410.31860	610.33606	1510.30347	1398.19385	662.60022	1237.85559	1429.69263	469.46460	1445.34863	1413.53186	415.62454	1273.70935	1334.16858	660.13940	1341.32678	1595.34033	552.10321	1477.41370	1669.36316	586.62646	1275.83472	1675.88464	603.97986	1136.07935	1682.85718	604.00305	1003.25488	1643.82666	557.20306	875.29065	1679.35107	601.66553	879.73590	1677.86023	587.69708	813.94641	1230.68274	514.57007	1487.97302	1140.77124	497.37521	1296.73584	1126.63977	444.52533	1157.50500	1120.42639	374.35239	1057.63403	1154.15076	288.23441	959.03113	1118.09082	326.25217	936.51788	1121.79944	266.76904	895.86279	1535.43445	425.56711	979.37256	1276.88757	439.55325	955.70355	1459.88855	640.45691	1020.58508	1346.50049	648.92542	1019.96655	1614.87854	433.76691	679.18915	1587.13635	413.23547	478.16190	1590.52734	418.46353	283.16971	1576.78479	348.98969	68.55938	1522.44177	369.95547	36.65723	1595.90369	191.22755	55.63548	1223.32593	576.63171	660.91608	1259.29346	627.02521	456.04706	1252.86682	729.97528	296.05649	1289.10498	811.53876	118.89134	1344.38098	858.92505	72.54950	1275.49670	673.35291	38.86868	1392.86694	549.28625	1793.23267						 
74	0.730	1478.10229	427.95486	1735.30676	1335.91711	437.69772	1715.88770	1496.07397	551.30316	1650.42859	1355.90393	572.82635	1629.58997	1413.18372	602.22418	1508.96594	1401.60608	653.16956	1236.32129	1432.12366	460.89047	1444.55750	1416.11938	406.48059	1273.47314	1337.47412	651.59094	1339.75867	1598.04016	543.23615	1476.43713	1672.05408	575.40021	1274.20593	1678.46924	591.37164	1134.30225	1686.08936	590.67865	1001.81830	1646.82324	543.32928	873.72070	1682.95020	587.73645	878.37335	1681.82727	573.50928	812.81287	1233.23364	507.10757	1487.07190	1144.22827	491.70200	1295.55640	1129.36902	439.55441	1155.90649	1123.56848	369.97913	1055.51941	1157.09009	284.42276	956.34570	1120.78784	322.72147	933.95502	1124.78894	263.61490	892.58228	1538.46155	414.50735	979.27191	1279.93359	429.15369	954.88770	1463.93811	629.59619	1019.33325	1350.52307	638.81122	1018.51349	1617.74121	424.34387	678.18604	1589.95752	406.51068	476.75296	1590.69360	412.83658	281.52866	1577.34375	344.60196	67.95950	1524.22156	367.25983	37.96550	1595.16577	186.27565	46.44960	1225.32300	567.61713	660.52930	1260.19580	618.95233	455.79807	1253.51270	724.85529	297.69861	1288.56006	809.70685	121.98163	1343.91321	857.67365	76.75374	1274.99512	673.22540	38.94144	1395.86377	541.14880	1792.36523	-3360.26099	2845.17798	1034.04480			 
75	0.740	1481.31897	419.89670	1734.96204	1339.05530	429.48141	1715.84033	1498.92847	543.04718	1649.83447	1358.71411	564.52979	1629.16406	1416.17700	594.24561	1507.84375	1405.30298	643.80756	1235.42700	1434.71155	452.29254	1444.10852	1418.41638	397.34732	1273.27197	1341.36963	643.30023	1338.50354	1600.88684	534.35529	1475.57214	1675.25671	564.47180	1272.97449	1681.94019	578.99860	1133.03638	1689.12524	577.06824	1000.23486	1650.43884	529.38135	872.88184	1686.50793	573.49194	877.11157	1685.51843	558.84857	811.66711	1235.75671	499.79150	1486.02771	1146.47607	484.14493	1294.39258	1132.39771	434.56201	1154.14868	1126.14783	366.02707	1052.91516	1160.03162	281.67422	953.09937	1123.67859	319.37799	931.27374	1127.81873	260.55981	889.29083	1541.36206	403.46402	979.29852	1283.11804	418.48193	954.18463	1468.31042	618.66504	1018.29797	1354.78369	628.73169	1016.95929	1620.82910	415.65033	678.16333	1593.13147	399.59628	476.59018	1591.15479	405.59351	281.58932	1579.68494	338.24429	68.75787	1526.42688	364.11731	39.66643	1595.55347	180.09431	42.65485	1227.17810	558.43719	659.97070	1261.14648	610.53180	455.83182	1254.28528	719.32617	299.68860	1287.94446	807.32904	125.63204	1343.31702	856.06427	81.46768	1274.62305	673.06494	39.00435	1398.89624	533.01239	1791.92017	-3360.35132	2845.27002	1033.94592			 
76	0.750	1484.06555	411.57379	1734.85657	1342.00293	421.26581	1716.00525	1501.84839	534.71069	1649.75317	1361.62341	556.22290	1629.18958	1419.31995	586.15826	1507.22363	1408.87842	634.42126	1234.86328	1437.30212	443.86826	1444.02258	1421.25159	388.40088	1273.76819	1345.21680	634.78790	1337.54968	1603.90271	525.49628	1474.99561	1678.27771	553.25153	1271.65344	1684.83435	566.13715	1131.50342	1692.76477	563.51062	999.18500	1653.48352	515.05493	871.64313	1690.05994	559.07654	875.94574	1689.30591	544.00116	810.69727	1238.06653	492.28528	1485.31824	1149.46716	478.14133	1293.04480	1135.49597	429.55206	1152.44727	1129.24561	361.67856	1050.73083	1162.80066	278.31500	950.04877	1126.58020	316.21371	928.60376	1130.83044	258.00131	885.88116	1544.25134	392.54745	979.59082	1286.47607	407.78763	953.45361	1472.60815	607.85895	1017.80005	1359.07263	618.61163	1015.38446	1624.16150	407.20502	679.29620	1595.99561	391.16333	477.69864	1593.68250	397.54797	282.89377	1579.99683	334.44897	68.39832	1526.40723	362.46356	40.45935	1597.73730	178.00392	39.97622	1228.93701	548.97327	659.78607	1262.09167	601.48608	456.06265	1254.62183	713.68323	302.23553	1287.44568	804.20740	129.64304	1342.80774	853.97906	86.85076	1274.33984	672.77472	39.02429	1402.01965	524.87244	1791.91125						 
77	0.760	1487.36011	403.41705	1735.39221	1344.88354	412.84851	1716.42175	1504.83496	526.40320	1650.12463	1364.58777	547.88770	1629.64404	1422.50781	577.80768	1507.31018	1412.12354	625.09802	1234.72998	1439.90076	435.57394	1444.36487	1423.87378	379.50345	1274.33362	1348.99475	626.19647	1337.04309	1607.05457	516.61737	1474.77063	1681.18591	541.83215	1270.50732	1688.11780	553.33875	1130.58960	1696.03418	549.70001	998.21838	1657.03699	500.63760	871.27551	1693.36646	544.30359	874.86786	1693.08215	528.86798	809.99713	1240.37476	484.93198	1484.79163	1152.85864	472.09537	1292.10315	1139.07385	424.30096	1150.92358	1132.24048	357.81979	1048.49683	1165.72485	275.28067	947.01892	1129.43896	313.48483	926.01276	1133.84937	255.70668	882.72339	1547.29395	381.61154	980.37103	1289.91882	397.33664	952.82721	1476.84485	597.27069	1018.33215	1363.23560	608.39441	1014.04285	1627.18262	398.95837	681.09009	1598.18457	380.79114	479.70975	1599.87866	389.32977	284.51300	1579.20178	335.18646	68.57955	1526.43726	362.69519	40.47857	1596.46960	177.46788	38.35966	1231.33606	538.60730	659.81311	1263.14746	591.49896	456.54779	1255.34143	706.91486	305.14749	1286.96851	801.28204	134.67703	1342.34473	851.43573	93.06980	1274.08679	672.32123	39.10637	1405.03320	516.59760	1792.25195	-3356.73169	2846.04590	1034.02466			 
